<?xml version="1.0" standalone="no"?>
<!DOCTYPE svg PUBLIC "-//W3C//DTD SVG 20010904//EN"
 "http://www.w3.org/TR/2001/REC-SVG-20010904/DTD/svg10.dtd">
<svg version="1.0" xmlns="http://www.w3.org/2000/svg"
 width="300.000000pt" height="307.000000pt" viewBox="0 0 300.000000 307.000000"
 preserveAspectRatio="xMidYMid meet">
<metadata>
Created by potrace 1.10, written by Peter Selinger 2001-2011
</metadata>
<g transform="translate(0.000000,307.000000) scale(0.100000,-0.100000)"
fill="#ff0000" stroke="none">
<path d="M1536 3044 c-3 -9 -6 -31 -6 -50 0 -29 -6 -38 -42 -61 -84 -53 -358
-177 -618 -280 -146 -58 -275 -111 -288 -120 -15 -9 -22 -22 -20 -36 5 -33 54
-33 246 3 359 68 943 211 1000 246 12 8 22 24 22 38 0 43 -113 187 -194 247
-43 32 -90 38 -100 13z m93 -59 c44 -31 126 -129 142 -167 8 -19 8 -33 2 -39
-13 -13 -373 -111 -583 -158 -145 -33 -334 -70 -485 -96 -58 -10 -9 14 190 93
342 137 599 260 643 309 13 14 26 38 29 54 7 35 19 36 62 4z"/>
<path d="M1797 2689 c-14 -8 -17 -22 -15 -72 2 -61 -1 -66 -96 -249 -53 -103
-105 -196 -114 -207 -17 -20 -40 -25 -472 -101 -96 -18 -236 -43 -310 -56
-391 -70 -362 -70 -394 -6 -44 87 -86 97 -86 21 0 -88 -22 -170 -72 -267 -50
-97 -50 -97 -43 -167 9 -90 39 -163 71 -171 82 -21 147 97 173 316 7 52 13 95
14 96 1 0 90 15 197 33 492 81 835 135 1195 186 215 30 400 58 413 60 15 4 22
1 22 -9 0 -19 -91 -154 -143 -211 l-42 -47 -120 38 c-123 39 -234 52 -242 28
-2 -6 40 -49 94 -95 54 -46 154 -138 223 -205 125 -121 170 -154 210 -154 59
0 90 60 70 137 -15 63 -35 98 -82 149 -23 25 -39 46 -37 47 2 1 78 40 169 87
144 74 174 85 233 91 128 12 129 54 4 154 -45 36 -115 89 -155 116 -83 58 -93
59 -237 21 -44 -12 -161 -35 -259 -52 -99 -17 -191 -33 -205 -36 -30 -6 -40
-16 172 174 153 137 163 150 148 193 -19 56 -59 97 -124 128 -71 34 -134 46
-160 30z m141 -65 c56 -28 102 -78 102 -112 0 -13 -38 -56 -112 -124 -184
-169 -208 -194 -208 -217 0 -46 35 -48 248 -12 107 18 240 44 295 58 119 31
111 33 272 -89 131 -100 139 -119 55 -130 -40 -4 -94 -26 -200 -80 -142 -72
-210 -118 -210 -143 0 -7 17 -34 39 -61 52 -66 72 -108 74 -155 2 -46 -20 -74
-51 -65 -39 13 -427 376 -401 376 7 0 65 -16 127 -35 88 -27 118 -32 138 -25
31 12 71 55 130 138 79 113 89 145 54 177 -24 22 -40 20 -435 -36 -635 -91
-1382 -215 -1412 -234 -23 -16 -43 -70 -43 -120 0 -48 -39 -195 -62 -237 -16
-27 -28 -38 -45 -38 -30 0 -49 41 -58 125 -6 57 -4 65 40 155 38 77 74 189 75
233 0 5 15 -8 34 -27 29 -31 40 -36 78 -36 48 0 303 44 353 61 17 5 66 15 110
20 72 9 311 51 548 95 60 11 98 24 116 40 15 12 71 108 129 222 84 165 102
207 102 244 0 25 3 48 7 51 14 14 61 6 111 -19z"/>
<path d="M1037 2514 c-37 -37 102 -257 217 -341 119 -87 187 -31 145 121 -25
91 -77 135 -218 186 -100 37 -133 44 -144 34z m240 -120 c94 -54 131 -247 42
-219 -38 12 -172 156 -206 221 -18 34 -30 64 -27 67 8 8 139 -39 191 -69z"/>
<path d="M533 2384 c9 -54 81 -158 177 -256 78 -79 89 -87 134 -93 45 -7 51
-5 69 16 25 31 18 102 -18 176 -33 66 -55 82 -207 143 -152 62 -163 62 -155
14z m167 -63 c116 -50 136 -63 159 -109 23 -45 34 -112 22 -131 -27 -42 -158
62 -249 199 -64 95 -61 97 68 41z"/>
<path d="M1086 1834 c-16 -40 14 -91 96 -168 45 -42 85 -76 89 -76 4 0 -2 -24
-13 -54 l-20 -54 -46 13 c-26 6 -57 15 -68 19 -19 6 -21 3 -16 -19 4 -22 9
-25 48 -25 37 0 44 -3 44 -20 0 -18 -7 -20 -76 -20 l-77 0 6 55 c5 51 4 57
-19 71 -13 9 -24 25 -24 36 0 25 -44 68 -69 68 -11 0 -29 14 -41 31 -27 37
-73 38 -78 2 -2 -13 -8 -23 -13 -23 -5 0 -9 -53 -9 -120 l0 -120 60 0 c32 0
70 5 83 11 21 10 32 6 84 -30 110 -75 261 -128 428 -151 109 -15 511 -8 567 9
40 13 78 52 78 82 0 24 -34 55 -95 86 -27 14 -69 39 -92 55 l-43 29 0 74 0 75
-31 0 -30 0 7 -47 c4 -26 18 -67 30 -90 13 -23 24 -56 24 -72 0 -28 -3 -31
-31 -31 -30 0 -30 0 -28 48 l3 47 -53 3 -53 3 7 -50 7 -51 -31 0 c-30 0 -41
13 -22 24 19 12 23 102 7 141 -19 46 -20 75 -3 75 23 0 37 -23 37 -62 l0 -38
53 0 52 1 -72 69 c-102 98 -137 91 -98 -20 8 -23 15 -71 15 -106 l0 -64 -50 0
-50 0 0 90 0 90 34 0 c29 0 33 3 29 20 -5 18 -14 20 -78 20 -64 0 -73 -2 -78
-20 -3 -11 -10 -20 -16 -20 -6 0 -11 9 -11 20 0 11 6 20 13 20 14 0 49 160 37
173 -4 5 -54 -1 -110 -12 -127 -26 -147 -26 -201 -1 -54 24 -85 25 -93 4z
m101 -49 c45 -19 79 -19 171 0 40 9 77 13 81 10 12 -7 -8 -97 -25 -114 -9 -10
-17 -11 -26 -4 -7 6 -27 14 -44 17 -25 6 -37 2 -61 -18 l-30 -25 -46 40 c-53
47 -81 85 -72 99 8 13 9 13 52 -5z m-261 -140 c45 -31 84 -85 84 -117 0 -35
-28 -71 -49 -62 -9 4 -36 8 -61 8 l-45 1 -3 50 c-2 28 -8 52 -13 53 -5 2 -9
24 -9 48 0 42 1 44 30 44 16 0 46 -11 66 -25z m468 -43 c17 -52 18 -67 8 -83
-11 -17 -9 -24 18 -50 16 -17 30 -32 30 -35 0 -2 -13 -4 -30 -4 -19 0 -30 5
-30 14 0 9 -17 16 -45 20 -49 8 -65 3 -65 -20 0 -9 -11 -14 -30 -14 -42 0 -38
18 16 63 19 16 24 16 50 2 16 -8 34 -15 40 -15 16 0 26 41 14 56 -6 6 -16 28
-23 48 l-12 36 -12 -29 c-10 -28 -9 -32 21 -50 l31 -21 -38 0 c-34 0 -38 2
-32 20 3 11 2 20 -3 20 -16 0 -22 46 -11 79 10 29 15 32 47 29 35 -3 37 -5 56
-66z m116 -56 c0 -79 1 -85 22 -88 35 -5 34 -28 -2 -28 -18 0 -29 4 -25 10 3
6 -4 10 -17 10 -32 0 -45 10 -58 44 -8 23 -7 32 4 45 8 9 17 33 21 54 6 30 11
37 31 37 23 0 24 -2 24 -84z m272 -79 c4 -9 12 -25 17 -34 11 -24 79 -30 87
-9 9 22 24 20 80 -11 95 -52 106 -74 47 -100 -58 -26 -448 -31 -583 -8 -97 16
-212 49 -261 76 l-24 12 30 9 c17 4 42 5 57 2 17 -3 39 1 58 13 28 16 34 17
78 2 35 -12 83 -16 192 -14 80 0 151 4 157 8 6 4 17 23 23 43 12 36 27 40 42
11z"/>
<path d="M855 1620 c-7 -11 44 -99 70 -120 11 -9 16 -7 24 9 16 29 13 66 -6
89 -21 24 -78 38 -88 22z"/>
<path d="M664 1708 c-20 -40 -64 -118 -98 -173 -60 -99 -61 -101 -61 -175 0
-285 191 -228 234 70 17 125 24 292 12 323 -19 49 -47 35 -87 -45z m46 -159
c-16 -189 -38 -267 -90 -314 -29 -26 -51 -11 -68 46 -22 73 -11 137 35 210 22
35 57 97 78 137 23 45 42 69 47 64 6 -6 5 -61 -2 -143z"/>
<path d="M1054 1654 c3 -9 6 -35 6 -59 0 -38 2 -43 20 -38 12 3 22 -1 26 -11
4 -11 18 -16 45 -16 32 0 39 3 39 20 0 17 -7 20 -40 20 -38 0 -40 2 -40 30 0
28 2 30 40 30 22 0 40 3 40 6 0 18 -41 33 -89 34 -44 0 -52 -3 -47 -16z"/>
<path d="M974 1318 c-5 -7 -9 -47 -9 -88 0 -65 -4 -84 -33 -140 -69 -135 -252
-349 -504 -590 -71 -67 -128 -128 -128 -135 0 -7 7 -18 15 -25 20 -17 40 -8
170 77 126 83 254 179 374 282 52 45 101 81 109 81 16 0 41 -14 171 -98 l83
-53 -23 -26 c-91 -97 -404 -321 -607 -434 -121 -67 -137 -80 -128 -105 28 -74
569 162 884 384 57 40 64 43 80 29 100 -89 494 -422 523 -442 l37 -27 319 27
c321 27 452 40 486 51 12 4 17 13 15 27 -2 17 -21 26 -98 51 -526 166 -783
262 -1014 377 -77 38 -142 71 -144 74 -2 2 83 92 189 200 107 108 195 205 197
215 2 11 -10 28 -32 45 -42 32 -203 105 -232 105 -12 0 -52 -12 -90 -26 -92
-34 -374 -101 -374 -88 0 2 7 16 16 29 14 22 14 27 -1 59 -28 58 -91 122 -142
144 -71 30 -99 36 -109 20z m154 -101 c46 -44 65 -83 58 -120 -8 -41 16 -67
63 -67 48 0 225 43 336 82 l90 31 84 -37 c98 -42 131 -62 131 -78 0 -7 -78
-91 -174 -187 -95 -97 -179 -187 -186 -200 -20 -39 13 -69 151 -138 210 -105
582 -245 922 -348 139 -42 137 -42 -228 -74 -420 -38 -376 -37 -415 -5 -19 16
-138 117 -265 225 -234 199 -260 219 -291 219 -10 0 -72 -35 -138 -79 -158
-102 -265 -163 -395 -221 -132 -59 -251 -104 -257 -97 -3 2 52 40 121 83 224
140 494 354 510 404 3 11 1 29 -5 40 -13 25 -189 142 -241 160 -46 16 -66 6
-182 -94 -134 -115 -296 -234 -377 -276 -14 -7 49 63 140 156 303 310 430 496
430 628 0 23 3 45 6 49 11 11 77 -22 112 -56z"/>
<path d="M1317 1005 c-226 -42 -220 -40 -256 -71 -63 -53 -63 -90 -3 -128 52
-32 236 -106 265 -106 37 0 158 129 226 240 26 43 26 55 1 80 -25 25 -19 25
-233 -15z m173 -85 c-34 -44 -84 -105 -113 -135 l-52 -55 -139 60 c-77 33
-142 63 -145 66 -3 2 9 19 26 36 29 28 44 33 229 68 282 54 268 57 194 -40z"/>
</g>
</svg>
